<?xml version="1.0" encoding="UTF-8" standalone="no"?>
<!-- Created with Inkscape (http://www.inkscape.org/) -->

<svg
   xmlns:dc="http://purl.org/dc/elements/1.1/"
   xmlns:cc="http://creativecommons.org/ns#"
   xmlns:rdf="http://www.w3.org/1999/02/22-rdf-syntax-ns#"
   xmlns:svg="http://www.w3.org/2000/svg"
   xmlns="http://www.w3.org/2000/svg"
   xmlns:sodipodi="http://sodipodi.sourceforge.net/DTD/sodipodi-0.dtd"
   xmlns:inkscape="http://www.inkscape.org/namespaces/inkscape"
   width="103.31981mm"
   height="81.040108mm"
   viewBox="0 0 103.31981 81.040108"
   version="1.1"
   id="svg7658"
   inkscape:version="0.92.3 (2405546, 2018-03-11)"
   sodipodi:docname="utbmbackground1.svg">
  <defs
     id="defs7652">
    <clipPath
       clipPathUnits="userSpaceOnUse"
       id="clipPath5338-3">
      <path
         d="M 0,0 H 841.89 V 595.276 H 0 Z"
         id="path5336-6"
         inkscape:connector-curvature="0" />
    </clipPath>
    <clipPath
       clipPathUnits="userSpaceOnUse"
       id="clipPath5358-0">
      <path
         d="M 0,0 H 841.89 V 595.276 H 0 Z"
         id="path5356-9"
         inkscape:connector-curvature="0" />
    </clipPath>
    <clipPath
       clipPathUnits="userSpaceOnUse"
       id="clipPath5374-2">
      <path
         d="M 0,0 H 841.89 V 595.276 H 0 Z"
         id="path5372-7"
         inkscape:connector-curvature="0" />
    </clipPath>
    <clipPath
       clipPathUnits="userSpaceOnUse"
       id="clipPath5394-9">
      <path
         d="M 0,0 H 841.89 V 595.276 H 0 Z"
         id="path5392-1"
         inkscape:connector-curvature="0" />
    </clipPath>
    <clipPath
       clipPathUnits="userSpaceOnUse"
       id="clipPath5410-6">
      <path
         d="M 0,0 H 841.89 V 595.276 H 0 Z"
         id="path5408-2"
         inkscape:connector-curvature="0" />
    </clipPath>
    <clipPath
       clipPathUnits="userSpaceOnUse"
       id="clipPath5426-3">
      <path
         d="M 0,0 H 841.89 V 595.276 H 0 Z"
         id="path5424-5"
         inkscape:connector-curvature="0" />
    </clipPath>
    <clipPath
       clipPathUnits="userSpaceOnUse"
       id="clipPath5450-7">
      <path
         d="M 0,0 H 841.89 V 595.276 H 0 Z"
         id="path5448-5"
         inkscape:connector-curvature="0" />
    </clipPath>
    <clipPath
       clipPathUnits="userSpaceOnUse"
       id="clipPath5466-3">
      <path
         d="M 0,0 H 841.89 V 595.276 H 0 Z"
         id="path5464-6"
         inkscape:connector-curvature="0" />
    </clipPath>
  </defs>
  <sodipodi:namedview
     id="base"
     pagecolor="#ffffff"
     bordercolor="#666666"
     borderopacity="1.0"
     inkscape:pageopacity="0.0"
     inkscape:pageshadow="2"
     inkscape:zoom="0.35"
     inkscape:cx="-1596.1785"
     inkscape:cy="-15.424774"
     inkscape:document-units="mm"
     inkscape:current-layer="layer1"
     showgrid="false"
     fit-margin-top="0"
     fit-margin-left="0"
     fit-margin-right="0"
     fit-margin-bottom="0"
     inkscape:window-width="1920"
     inkscape:window-height="1025"
     inkscape:window-x="0"
     inkscape:window-y="27"
     inkscape:window-maximized="1" />
  <metadata
     id="metadata7655">
    <rdf:RDF>
      <cc:Work
         rdf:about="">
        <dc:format>image/svg+xml</dc:format>
        <dc:type
           rdf:resource="http://purl.org/dc/dcmitype/StillImage" />
        <dc:title />
      </cc:Work>
    </rdf:RDF>
  </metadata>
  <g
     inkscape:label="Calque 1"
     inkscape:groupmode="layer"
     id="layer1"
     transform="translate(-33.762715,-72.783514)">
    <g
       id="g7557"
       transform="matrix(0.35277777,0,0,-0.35277777,-23.881628,226.85832)"
       style="opacity:0.03">
      <g
         transform="translate(456.27634,242.58849)"
         id="g5316"
         style="">
        <path
           inkscape:connector-curvature="0"
           id="path5318"
           style="fill:#008eaf;fill-opacity:1;fill-rule:nonzero;stroke:none"
           d="m 0,0 -275.502,-29.077 v 212.7 L 0,165.657 Z" />
      </g>
      <g
         transform="translate(163.40129,370.82449)"
         id="g5320"
         style="">
        <path
           inkscape:connector-curvature="0"
           id="path5322"
           style="fill:#000000;fill-opacity:1;fill-rule:nonzero;stroke:none"
           d="M 0,0 104.012,-2.582 V 65.923 L 245.508,54.358 V -66.15 l 30.452,0.964 v -79.855 l -171.948,-18.756 v 68.198 L 0,-101.054 Z" />
      </g>
      <g
         transform="translate(211.93889,352.89148)"
         id="g5324"
         style="">
        <path
           inkscape:connector-curvature="0"
           id="path5326"
           style="fill:#ffffff;fill-opacity:1;fill-rule:nonzero;stroke:none"
           d="m 0,0 v -9.081 l -10.162,0.049 v -55.367 l -10.848,-0.43 v 55.844 l -10.155,0.045 v 9.303 z" />
      </g>
      <g
         transform="translate(215.69869,352.84429)"
         id="g5328"
         style="">
        <path
           inkscape:connector-curvature="0"
           id="path5330"
           style="fill:#ffffff;fill-opacity:1;fill-rule:nonzero;stroke:none"
           d="m 0,0 28.14,-0.318 v -8.849 l -17.29,0.073 v -18.137 l 14.869,0.152 v -8.935 l -14.869,-0.26 v -18.101 l 17.29,0.557 v -8.891 L 0,-63.811 Z" />
      </g>
      <g
         id="g5332"
         transform="translate(48.59859,-17.561523)"
         style="">
        <g
           clip-path="url(#clipPath5338-3)"
           id="g5334"
           style="">
          <g
             transform="translate(230.5454,320.7209)"
             id="g5340"
             style="">
            <path
               inkscape:connector-curvature="0"
               id="path5342"
               style="fill:#ffffff;fill-opacity:1;fill-rule:nonzero;stroke:none"
               d="m 0,0 c 0,-8.478 -5.203,-12.934 -15.604,-13.378 -10.375,-0.413 -15.565,3.736 -15.565,12.458 v 38.045 c 0,8.701 5.19,12.983 15.565,12.865 C -5.203,49.854 0,45.558 0,37.078 v -8.139 l -10.847,-0.062 v 8.214 c 0,2.758 -1.575,4.138 -4.718,4.15 h -0.08 c -3.117,0.013 -4.675,-1.36 -4.675,-4.137 V -0.599 c 0,-2.765 1.571,-4.102 4.716,-4.003 3.167,0.107 4.757,1.532 4.757,4.284 V 7.893 L 0,8.143 Z" />
          </g>
        </g>
      </g>
      <g
         transform="translate(284.82029,352.04929)"
         id="g5344"
         style="">
        <path
           inkscape:connector-curvature="0"
           id="path5346"
           style="fill:#ffffff;fill-opacity:1;fill-rule:nonzero;stroke:none"
           d="m 0,0 10.843,-0.127 v -25.601 l 9.473,0.099 V -0.232 L 31.163,-0.359 V -59.08 l -10.847,-0.423 v 25.394 L 10.843,-34.27 V -59.873 L 0,-60.3 Z" />
      </g>
      <g
         transform="translate(322.81099,351.60889)"
         id="g5348"
         style="">
        <path
           inkscape:connector-curvature="0"
           id="path5350"
           style="fill:#ffffff;fill-opacity:1;fill-rule:nonzero;stroke:none"
           d="m 0,0 10.85,-0.12 10.267,-33.368 v 33.245 l 10.046,-0.12 V -57.14 l -10.847,-0.43 -9.889,32.102 v -32.49 L 0,-58.367 Z" />
      </g>
      <g
         id="g5352"
         transform="translate(48.59859,-17.561523)"
         style="">
        <g
           clip-path="url(#clipPath5358-0)"
           id="g5354"
           style="">
          <g
             transform="translate(342.5972,324.0295)"
             id="g5360"
             style="">
            <path
               inkscape:connector-curvature="0"
               id="path5362"
               style="fill:#ffffff;fill-opacity:1;fill-rule:nonzero;stroke:none"
               d="m 0,0 c 0,-7.683 -5.199,-11.748 -15.602,-12.179 -10.375,-0.415 -15.561,3.338 -15.561,11.262 v 34.553 c 0,7.904 5.186,11.791 15.561,11.666 C -5.199,45.175 0,41.263 0,33.587 Z m -10.843,33.608 c 0,2.496 -1.571,3.749 -4.718,3.762 h -0.075 c -3.117,0.021 -4.677,-1.231 -4.677,-3.749 v -34.22 c 0,-2.521 1.572,-3.717 4.711,-3.623 3.169,0.106 4.759,1.405 4.759,3.902 z" />
          </g>
        </g>
      </g>
      <g
         transform="translate(284.78809,224.68349)"
         id="g5364"
         style="">
        <path
           inkscape:connector-curvature="0"
           id="path5366"
           style="fill:#ec6608;fill-opacity:1;fill-rule:nonzero;stroke:none"
           d="m 0,0 v 67.066 l 10.848,0.423 V 9.552 l 17.281,1.532 V 2.692 Z" />
      </g>
      <g
         id="g5368"
         transform="translate(48.59859,-17.561523)"
         style="">
        <g
           clip-path="url(#clipPath5374-2)"
           id="g5370"
           style="">
          <g
             transform="translate(298.0967,259.151)"
             id="g5376"
             style="">
            <path
               inkscape:connector-curvature="0"
               id="path5378"
               style="fill:#ec6608;fill-opacity:1;fill-rule:nonzero;stroke:none"
               d="m 0,0 c 0,-7.996 -5.199,-12.51 -15.604,-13.539 -10.375,-1.004 -15.563,2.616 -15.563,10.856 V 33.26 c 0,8.218 5.188,12.558 15.563,13.02 C -5.199,46.739 0,42.973 0,34.966 Z m -10.85,34.373 c 0,2.602 -1.568,3.813 -4.713,3.652 l -0.078,-0.004 c -3.117,-0.163 -4.674,-1.549 -4.674,-4.166 V -1.747 c 0,-2.623 1.568,-3.787 4.711,-3.506 3.171,0.282 4.754,1.721 4.754,4.318 z" />
          </g>
          <g
             transform="translate(336.1221,262.4144)"
             id="g5380"
             style="">
            <path
               inkscape:connector-curvature="0"
               id="path5382"
               style="fill:#ec6608;fill-opacity:1;fill-rule:nonzero;stroke:none"
               d="m 0,0 c 0,-7.723 -5.199,-12.099 -15.598,-13.12 -10.377,-1.012 -15.565,2.473 -15.565,10.438 v 34.735 c 0,7.942 5.188,12.148 15.565,12.612 C -5.199,45.118 0,41.485 0,33.767 v -7.416 l -10.845,-0.672 v 7.486 c 0,2.517 -1.573,3.687 -4.716,3.526 l -0.08,-0.007 c -3.117,-0.158 -4.677,-1.505 -4.677,-4.034 V -1.743 c 0,-2.527 1.573,-3.661 4.72,-3.378 3.167,0.288 4.753,1.677 4.753,4.191 v 13.078 l -5.483,-0.402 v 7.975 L 0,20.818 Z" />
          </g>
        </g>
      </g>
      <g
         transform="translate(395.69279,289.96798)"
         id="g5384"
         style="">
        <path
           inkscape:connector-curvature="0"
           id="path5386"
           style="fill:#ec6608;fill-opacity:1;fill-rule:nonzero;stroke:none"
           d="M 0,0 7.401,-20.829 14.794,0.664 26.292,1.186 13.148,-30.018 12.843,-30.727 V -53.432 L 1.989,-54.467 v 22.934 l -0.342,0.666 -13.148,30.354 z" />
      </g>
      <g
         id="g5388"
         transform="translate(48.59859,-17.561523)"
         style="">
        <g
           clip-path="url(#clipPath5394-9)"
           id="g5390"
           style="">
          <g
             transform="translate(257.8521,398.6749)"
             id="g5396"
             style="">
            <path
               inkscape:connector-curvature="0"
               id="path5398"
               style="fill:#ffffff;fill-opacity:1;fill-rule:nonzero;stroke:none"
               d="m 0,0 c 0,-6.441 -3.592,-9.565 -10.776,-9.378 -7.167,0.202 -10.753,3.592 -10.753,10.166 v 37.757 l 7.498,-0.509 V 0.513 c 0,-2.101 1.083,-3.192 3.255,-3.265 2.182,-0.073 3.278,0.937 3.278,3.027 V 37.589 L 0,37.071 Z" />
          </g>
        </g>
      </g>
      <g
         transform="translate(330.30709,416.54539)"
         id="g5400"
         style="">
        <path
           inkscape:connector-curvature="0"
           id="path5402"
           style="fill:#ffffff;fill-opacity:1;fill-rule:nonzero;stroke:none"
           d="m 0,0 v -6.405 l -7.013,0.441 v -38.893 l -7.498,0.221 v 39.149 l -7.014,0.44 v 6.525 z" />
      </g>
      <g
         id="g5404"
         transform="translate(48.59859,-17.561523)"
         style="">
        <g
           clip-path="url(#clipPath5410-6)"
           id="g5406"
           style="">
          <g
             transform="translate(284.3037,433.9351)"
             id="g5412"
             style="">
            <path
               inkscape:connector-curvature="0"
               id="path5414"
               style="fill:#ffffff;fill-opacity:1;fill-rule:nonzero;stroke:none"
               d="m 0,0 11.546,-0.791 c 6.658,-0.477 9.981,-3.796 9.981,-9.973 v -6.634 c 0,-2.892 -1.37,-4.873 -4.103,-5.936 2.733,-1.332 4.103,-3.448 4.103,-6.34 v -6.652 c 0,-6.164 -3.486,-9.148 -10.454,-8.961 L 0,-44.965 Z M 7.496,-6.869 V -19.66 l 2.353,-0.127 c 1.044,-0.045 1.759,-0.026 2.148,0.073 1.358,0.395 2.039,1.306 2.039,2.724 v 6.673 c 0,2.028 -1.089,3.105 -3.255,3.242 z m 0,-19.17 v -12.79 l 3.285,-0.114 c 2.166,-0.079 3.255,0.886 3.255,2.89 v 6.701 c 0,1.42 -0.681,2.389 -2.039,2.905 -0.389,0.157 -1.104,0.255 -2.148,0.303 z" />
          </g>
        </g>
      </g>
      <g
         transform="translate(374.66159,383.83549)"
         id="g5416"
         style="">
        <path
           inkscape:connector-curvature="0"
           id="path5418"
           style="fill:#ffffff;fill-opacity:1;fill-rule:nonzero;stroke:none"
           d="m 0,0 8.708,29.077 7.5,-0.518 V -14.115 L 9.025,-13.9 v 24.101 l -6.404,-23.915 -5.081,0.149 -6.594,24.696 v -24.509 l -7.257,0.215 v 43.952 l 7.492,-0.515 z" />
      </g>
      <g
         id="g5420"
         transform="translate(48.59859,-17.561523)"
         style="">
        <g
           clip-path="url(#clipPath5426-3)"
           id="g5422"
           style="">
          <g
             transform="translate(236.2217,385.3546)"
             id="g5428"
             style="">
            <path
               inkscape:connector-curvature="0"
               id="path5430"
               style="fill:#ec6608;fill-opacity:1;fill-rule:nonzero;stroke:none"
               d="M 0,0 4.196,-0.11 C 6.727,-0.168 8.394,-1.418 8.394,-3.405 V -3.44 c 0,-2.176 -2.018,-3.268 -4.406,-3.222 l -2.722,0.056 v -3.588 L 0,-10.167 Z m 4.037,-5.616 c 1.86,-0.041 3.079,0.829 3.079,2.163 v 0.026 c 0,1.446 -1.205,2.228 -3.019,2.269 l -2.831,0.067 v -4.473 z" />
          </g>
          <g
             transform="translate(245.7847,380.0393)"
             id="g5432"
             style="">
            <path
               inkscape:connector-curvature="0"
               id="path5434"
               style="fill:#ec6608;fill-opacity:1;fill-rule:nonzero;stroke:none"
               d="M 0,0 V 0.034 C 0,2.817 2.327,5.193 5.738,5.109 9.15,5.019 11.44,2.585 11.44,-0.174 V -0.2 C 11.44,-2.958 9.116,-5.332 5.704,-5.274 2.292,-5.227 0,-2.784 0,0 m 10.13,-0.2 v 0.026 C 10.13,2.095 8.269,4.003 5.704,4.065 3.139,4.123 1.317,2.323 1.317,0.034 V 0 c 0,-2.282 1.856,-4.189 4.421,-4.237 2.566,-0.038 4.392,1.762 4.392,4.037" />
          </g>
        </g>
      </g>
      <g
         transform="translate(306.41649,367.25809)"
         id="g5436"
         style="">
        <path
           inkscape:connector-curvature="0"
           id="path5438"
           style="fill:#ec6608;fill-opacity:1;fill-rule:nonzero;stroke:none"
           d="m 0,0 1.381,-0.034 3.202,-8.368 3.076,8.241 1.042,-0.026 3.077,-8.34 3.207,8.153 1.33,-0.034 -4.009,-9.849 -1.072,0.015 -3.079,8.098 -3.091,-7.997 -1.059,0.015 z" />
      </g>
      <g
         transform="translate(324.37739,366.80689)"
         id="g5440"
         style="">
        <path
           inkscape:connector-curvature="0"
           id="path5442"
           style="fill:#ec6608;fill-opacity:1;fill-rule:nonzero;stroke:none"
           d="M 0,0 8.112,-0.2 V -1.201 L 1.27,-1.036 V -4.398 L 7.389,-4.522 V -5.526 L 1.27,-5.408 V -8.841 L 8.186,-8.959 V -9.964 L 0,-9.831 Z" />
      </g>
      <g
         id="g5444"
         transform="translate(48.59859,-17.561523)"
         style="">
        <g
           clip-path="url(#clipPath5450-7)"
           id="g5446"
           style="">
          <g
             transform="translate(285.8721,384.1213)"
             id="g5452"
             style="">
            <path
               inkscape:connector-curvature="0"
               id="path5454"
               style="fill:#ec6608;fill-opacity:1;fill-rule:nonzero;stroke:none"
               d="m 0,0 4.828,-0.12 c 1.377,-0.035 2.481,-0.421 3.184,-1.042 0.543,-0.49 0.867,-1.173 0.867,-1.927 v -0.035 c 0,-1.6 -1.282,-2.516 -3.042,-2.758 L 9.284,-9.898 7.726,-9.879 4.471,-6.05 1.27,-5.981 V -9.767 L 0,-9.745 Z m 4.711,-5.068 c 1.689,-0.03 2.886,0.685 2.886,1.938 v 0.026 c 0,1.19 -1.057,1.927 -2.866,1.976 L 1.27,-1.044 v -3.955 z" />
          </g>
        </g>
      </g>
      <g
         transform="translate(345.41499,366.28699)"
         id="g5456"
         style="">
        <path
           inkscape:connector-curvature="0"
           id="path5458"
           style="fill:#ec6608;fill-opacity:1;fill-rule:nonzero;stroke:none"
           d="m 0,0 8.112,-0.202 v -0.982 l -6.84,0.159 v -3.287 l 6.116,-0.131 v -0.986 l -6.116,0.12 v -3.373 l 6.92,-0.12 V -9.786 L 0,-9.653 Z" />
      </g>
      <g
         id="g5460"
         transform="translate(48.59859,-17.561523)"
         style="">
        <g
           clip-path="url(#clipPath5466-3)"
           id="g5462"
           style="">
          <g
             transform="translate(306.916,383.5992)"
             id="g5468"
             style="">
            <path
               inkscape:connector-curvature="0"
               id="path5470"
               style="fill:#ec6608;fill-opacity:1;fill-rule:nonzero;stroke:none"
               d="m 0,0 3.891,-0.099 c 3.526,-0.088 5.962,-2.189 5.962,-4.857 v -0.035 c 0,-2.664 -2.436,-4.698 -5.962,-4.638 L 0,-9.565 Z m 1.263,-1.029 v -7.563 l 2.628,-0.047 c 2.836,-0.047 4.643,1.554 4.643,3.648 v 0.035 c 0,2.099 -1.807,3.8 -4.643,3.867 z" />
          </g>
          <g
             transform="translate(322.9673,383.1997)"
             id="g5472"
             style="">
            <path
               inkscape:connector-curvature="0"
               id="path5474"
               style="fill:#ec6608;fill-opacity:1;fill-rule:nonzero;stroke:none"
               d="m 0,0 4.776,-0.114 c 1.28,-0.034 2.29,-0.369 2.932,-0.904 0.462,-0.415 0.727,-0.918 0.727,-1.519 v -0.022 c 0,-1.224 -0.907,-1.826 -1.782,-2.135 1.326,-0.361 2.4,-1.017 2.4,-2.31 V -7.03 c 0,-1.598 -1.617,-2.522 -4.069,-2.483 L 0,-9.432 Z m 7.147,-2.653 c 0,0.924 -0.882,1.549 -2.483,1.587 L 1.252,-0.984 V -4.23 l 3.311,-0.069 c 1.528,-0.034 2.584,0.524 2.584,1.62 z M 4.791,-5.242 1.252,-5.167 v -3.326 l 3.767,-0.06 c 1.697,-0.034 2.752,0.574 2.752,1.624 v 0.022 c 0,1.016 -1.025,1.626 -2.98,1.665" />
          </g>
        </g>
      </g>
      <g
         transform="translate(385.52189,359.66758)"
         id="g5476"
         style="">
        <path
           inkscape:connector-curvature="0"
           id="path5478"
           style="fill:#ec6608;fill-opacity:1;fill-rule:nonzero;stroke:none"
           d="M 0,0 -4.66,5.736 -3.124,5.702 0.657,0.956 4.471,5.515 5.942,5.472 1.283,-0.013 V -3.708 L 0,-3.682 Z" />
      </g>
      <g
         transform="translate(267.41349,275.22549)"
         id="g5480"
         style="">
        <path
           inkscape:connector-curvature="0"
           id="path5482"
           style="fill:#ec6608;fill-opacity:1;fill-rule:nonzero;stroke:none"
           d="M 0,0 -86.64,-4.546 V -61.714 L 0,-52.529 Z" />
      </g>
    </g>
  </g>
</svg>
