<?xml version="1.0" encoding="UTF-8" standalone="no"?>
<!-- Created with Inkscape (http://www.inkscape.org/) -->

<svg
   width="529.45917mm"
   height="87.738441mm"
   viewBox="0 0 529.45917 87.738441"
   version="1.1"
   id="svg5"
   xml:space="preserve"
   inkscape:version="1.2.2 (b0a8486541, 2022-12-01)"
   sodipodi:docname="edihlogo.svg"
   xmlns:inkscape="http://www.inkscape.org/namespaces/inkscape"
   xmlns:sodipodi="http://sodipodi.sourceforge.net/DTD/sodipodi-0.dtd"
   xmlns="http://www.w3.org/2000/svg"
   xmlns:svg="http://www.w3.org/2000/svg"><sodipodi:namedview
     id="namedview7"
     pagecolor="#ffffff"
     bordercolor="#666666"
     borderopacity="1.0"
     inkscape:showpageshadow="2"
     inkscape:pageopacity="0.0"
     inkscape:pagecheckerboard="0"
     inkscape:deskcolor="#d1d1d1"
     inkscape:document-units="mm"
     showgrid="false"
     inkscape:zoom="0.51087175"
     inkscape:cx="1057.0167"
     inkscape:cy="-106.68039"
     inkscape:window-width="1674"
     inkscape:window-height="991"
     inkscape:window-x="26"
     inkscape:window-y="23"
     inkscape:window-maximized="0"
     inkscape:current-layer="layer1" /><defs
     id="defs2" /><g
     inkscape:label="Calque 1"
     inkscape:groupmode="layer"
     id="layer1"
     transform="translate(174.48348,-177.5002)"><path
       style="fill:#fdd017;stroke:none;stroke-width:0.264583"
       d="m -167.00943,177.91899 c -7.14099,1.02528 -7.40833,7.01294 -7.40833,12.85126 v 39.15833 21.69584 c 0,3.35095 -0.54993,7.16756 1.53177,10.05311 3.15165,4.36853 9.40235,3.17606 14.07865,3.17606 h 28.83958 c 4.61434,0 10.1219,0.81994 14.55209,-0.62389 11.15192,-3.63485 13.31965,-19.08281 3.43958,-25.54314 -3.53616,-2.3122 -7.3361,-2.14339 -11.37708,-2.14339 h -14.28751 c -1.77535,0 -8.08116,0.98425 -8.08116,-1.84918 0,-2.94058 7.53401,-1.85499 9.40408,-1.85499 2.78871,0 5.58747,0.23733 8.20209,-0.93001 5.77162,-2.57625 8.17112,-9.83562 5.58244,-15.47416 -3.03265,-6.60506 -9.6864,-6.61458 -15.9012,-6.61458 -1.68222,0 -7.04003,0.90302 -7.28503,-1.58777 -0.11113,-1.13003 1.04722,-1.71714 1.99337,-1.82298 2.4122,-0.27013 4.98104,-0.0288 7.40833,-0.0288 8.96012,0 21.65615,2.52069 27.90587,-5.55625 5.61181,-7.25249 2.82099,-19.34712 -6.21003,-22.21743 -5.89545,-1.87375 -13.19107,-0.80132 -19.31459,-0.80132 h -21.69583 c -3.71063,0 -7.70261,-0.41428 -11.37709,0.11332 m 75.406254,0.003 c -3.064669,0.48239 -5.770827,2.12945 -6.85165,5.17549 -0.936887,2.64084 -0.556684,5.71257 -0.556684,8.46667 v 15.08125 40.74584 c 0,4.88526 -1.33905,11.82396 2.691871,15.48659 2.274623,2.06719 5.02338,1.97591 7.891463,1.97591 3.972719,0 7.960255,0.16351 11.906251,-0.33999 5.888567,-0.75168 11.583723,-2.87999 16.66875,-5.90524 4.715405,-2.80564 8.787607,-6.60188 12.108393,-10.95269 2.977885,-3.90181 5.1435,-8.3193 6.67676,-12.96459 6.009746,-18.20809 -1.399116,-39.09668 -17.462236,-49.55773 -6.861704,-4.46865 -14.197542,-6.3441 -22.225001,-7.10803 -3.446727,-0.328 -7.408598,-0.64484 -10.847917,-0.10348 m 73.289587,-0.003 c -5.984876,0.72425 -11.143986,4.1555 -12.851343,10.20546 -1.379273,4.88791 -0.642408,10.57434 -0.642408,15.61042 v 29.10417 c 0,6.87757 -1.310481,15.31938 0.645319,21.96042 1.986227,6.74423 8.618008,10.74473 15.494265,10.00813 5.9959885,-0.64214 11.0307447,-5.45465 12.145699,-11.33105 0.7889875,-4.15845 0.2897187,-8.74183 0.2897187,-12.96459 v -24.07711 -17.4625 c 0,-3.41074 0.3137959,-6.97018 -0.4405313,-10.31875 -1.412875,-6.27168 -8.0896364,-11.52739 -14.6407194,-10.73462 m 35.718751,2.1e-4 C 11.145649,178.69679 5.9299184,182.59347 4.4138558,188.9182 3.0972891,194.4099 3.911412,200.76466 3.911412,206.38071 v 33.3375 c 0,7.21889 -1.3599584,16.28643 4.766469,21.57968 8.733896,7.54645 22.95869,2.11535 23.784984,-9.67343 0.299773,-4.27964 0.02355,-8.6741 0.02355,-12.96459 0,-1.47029 -0.47625,-3.99097 0.460904,-5.23134 0.760413,-1.00621 2.126721,-0.85354 3.243263,-0.85407 3.054085,-10e-4 7.110148,-0.70565 10.052844,0.11483 2.87311,0.80089 1.588823,8.85163 1.588823,11.26225 0,3.66237 -0.403754,7.57317 0.726546,11.1125 2.115873,6.62491 9.046633,10.88523 15.942205,9.66682 6.031177,-1.06574 10.43649,-5.57583 11.640608,-11.5189 1.128184,-5.56736 0.265642,-12.05072 0.265642,-17.72709 v -35.18958 c 0,-7.09824 0.754592,-14.19162 -5.291667,-19.22844 -2.039673,-1.6992 -4.518025,-2.71097 -7.14375,-3.00984 -2.160323,-0.24586 -4.257675,-0.11502 -6.35,0.55001 -10.228528,3.25096 -9.789584,13.51016 -9.789584,22.21743 0,2.08889 0.860689,6.70878 -0.424127,8.42751 -0.765969,1.02447 -2.153444,0.83291 -3.28004,0.83291 -3.081867,2.7e-4 -7.068609,0.67839 -10.052844,-0.0841 -2.824427,-0.72152 -1.588823,-8.45635 -1.588823,-10.76378 0,-3.74676 0.431006,-7.74478 -0.645319,-11.37708 -1.75551,-5.92371 -8.101807,-10.72753 -14.435932,-9.94066 m 78.845837,-0.11351 v 87.04793 h 1.058333 v -66.41043 -15.61041 c 0,-1.48498 0.64823,-4.46109 -1.058333,-5.02709 m 20.902089,0.26459 v 22.225 h 12.96458 c -0.0132,-3.92854 -7.31044,-2.38125 -10.31875,-2.38125 v -7.9375 h 8.99583 v -2.38125 h -8.99583 v -7.14375 h 10.05417 v -2.38125 h -12.7 m 37.04166,7.67291 c -0.0741,-1.33164 -1.97908,-2.986 -2.56116,-1.01914 -0.43392,1.45841 -0.0847,3.4721 -0.0847,4.98789 v 10.58334 c 5.27315,-0.004 1.37848,-8.49913 2.80458,-11.87093 0.6985,-1.64724 4.18042,-1.77961 5.66209,-2.41657 l -0.52917,-2.38125 -5.29167,2.11666 m 12.17084,-1.99294 c -5.76792,1.09019 -6.68073,11.02503 -3.3364,14.93266 1.64571,1.9222 4.69107,2.17752 7.04057,1.75392 5.71764,-1.03082 6.858,-10.65572 3.60097,-14.68956 -1.68539,-2.08897 -4.7916,-2.47227 -7.30514,-1.99702 m 14.81667,1.99294 c -0.0397,-1.18263 -1.61132,-3.01468 -2.48709,-1.2388 -0.75141,1.52699 -0.15875,4.57753 -0.15875,6.26589 v 15.34583 h 2.64584 v -6.35 c 2.6035,0.82682 6.31295,1.54861 8.72595,-0.17251 3.45811,-2.46327 3.72798,-12.43031 0.2593,-15.00163 -2.79665,-2.07206 -6.40292,-0.41371 -8.98525,1.15122 m 16.40416,7.40834 c 2.43946,-0.58092 5.17525,-0.26459 7.67292,-0.26459 0.86519,0 2.30717,0.26088 2.97921,-0.42423 1.35996,-1.39028 -0.0212,-5.43885 -1.01071,-6.70891 -2.07433,-2.66607 -7.01146,-2.85969 -9.63083,-0.90011 -4.43707,3.31936 -3.7174,14.59545 2.37066,15.61992 1.93146,0.32491 4.20423,0.15716 6.08542,-0.3556 0.70644,-0.19262 2.00819,-0.83873 1.30969,-1.78065 -0.88371,-1.19671 -5.15938,0.0685 -6.60136,-0.26299 -2.59291,-0.59638 -2.56381,-2.87126 -3.175,-4.92284 m 24.60625,-2.91042 c -2.7252,0 -6.69395,-0.65617 -8.98525,1.1692 -2.52412,2.01162 -2.76225,7.81923 0.78317,8.93683 3.09563,0.97525 5.64885,-0.82788 8.46667,-1.63936 0.39687,1.37186 3.84439,2.9419 4.10898,0.77099 0.127,-1.02631 -1.51342,-1.52188 -1.68804,-2.6244 -0.54769,-3.4626 1.04775,-7.89937 -0.68528,-11.1071 -1.45256,-2.68573 -5.78379,-2.33505 -8.35025,-1.96742 -0.88635,0.1269 -3.32052,0.18167 -2.89983,1.66447 0.3519,1.23436 2.75431,0.56497 3.69358,0.56346 3.41842,-0.005 5.55361,0.31832 5.55625,4.23333 m 9.26042,-4.49792 c -0.0556,-1.71092 -0.80962,-1.84652 -2.38125,-1.85208 v 16.40417 h 2.38125 v -8.46667 c 0,-1.06264 -0.29898,-2.69727 0.27252,-3.64477 1.04775,-1.74498 5.83671,-3.00175 7.28663,-1.34313 1.04246,1.19126 0.90752,2.98876 0.90752,4.45873 v 8.99584 h 2.38125 c 0,-5.78115 2.46856,-19.44167 -7.40834,-16.20594 -1.2065,0.39521 -2.34685,1.01626 -3.43958,1.65385 m -87.04792,12.96459 v 1.5875 c 0.69585,-5.3e-4 1.88119,0.19738 2.37331,-0.42413 0.55034,-0.69294 0.27252,-2.18943 0.27252,-3.01546 v -8.20208 c 0,-1.11368 0.5715,-4.28815 -0.83343,-4.67717 -1.55046,-0.42929 -1.80446,0.83897 -1.8124,2.03134 -0.0185,2.52904 1.02129,7.80759 -0.27252,9.99781 -0.9869,1.67375 -5.41867,3.02154 -7.03263,1.71291 -0.89164,-0.72522 -1.01335,-2.17778 -1.11654,-3.24406 -0.13493,-1.39541 -0.045,-2.83244 -0.045,-4.23333 v -6.35 c -0.71702,0.002 -1.83885,-0.16523 -2.2225,0.61328 -0.46566,0.94771 -0.15875,2.58699 -0.15875,3.62005 0,3.03377 -1.11389,8.90773 1.16152,11.28713 2.61409,2.73076 6.9559,0.43339 9.6864,-0.70379 m 22.48959,-12.60896 c 4.83129,-0.99258 5.55625,2.71312 5.55625,6.52354 0,2.2823 -0.17463,4.93686 -2.91042,5.46629 -4.77309,0.9234 -5.60123,-2.98979 -5.55625,-6.78921 0.0265,-2.07991 0.508,-4.7072 2.91042,-5.20062 m 14.2875,11.55062 v -5.82083 c 0,-1.09207 -0.34132,-2.90661 0.27252,-3.86546 1.04775,-1.64189 5.77321,-2.77566 7.22841,-1.27473 1.88384,1.94421 1.67482,9.5082 -0.63235,11.02929 -1.79917,1.1856 -4.92919,0.30797 -6.86858,-0.0683 m 24.60625,-6.87917 h -8.20209 c 0.34661,-1.40319 0.43392,-3.07673 1.64307,-4.06061 3.35491,-2.72884 6.55108,0.75631 6.55902,4.06061 m 16.40416,1.5875 c 0,1.09749 0.39159,3.13161 -0.27252,4.06162 -1.04775,1.46817 -5.82083,2.57281 -7.26546,1.29831 -2.68816,-2.3749 0.96309,-5.33016 3.30465,-5.35892 1.41023,-0.0173 2.8231,-0.001 4.23333,-0.001 m -19.31458,38.1 c -2.70669,-0.24633 -2.38125,-2.30241 -2.38125,-4.49792 V 213.789 c 0,-1.06812 0.51329,-4.02987 -0.42333,-4.75403 -2.31511,-1.78674 -1.95792,3.33877 -1.95792,4.22486 0,5.54038 -0.93927,12.01923 0.0608,17.46224 0.508,2.76966 4.66725,2.69108 4.70165,-0.26432 m -85.725,-20.10833 v 15.875 c 0,1.39647 -0.62177,4.79769 0.27252,5.92587 0.61912,0.78158 2.55323,0.42413 3.43164,0.42413 3.41577,0 7.41363,0.33284 9.96686,-2.42729 3.81529,-4.123 3.67771,-15.62338 -1.50019,-18.64334 -3.429,-1.99998 -8.35819,-1.15437 -12.17083,-1.15437 m 21.25133,0.27305 c -1.55046,0.99774 0.037,3.50123 1.63248,2.36511 1.37583,-0.9824 -0.18785,-3.2946 -1.63248,-2.36511 m 24.82586,-0.0725 c -1.65894,0.69241 -0.4789,3.27924 1.22237,2.54899 1.63513,-0.70194 0.47625,-3.25887 -1.22237,-2.54899 m 52.34781,-0.20056 v 16.66875 c 0,2.81834 -0.87048,5.55361 2.64583,5.55625 v -22.225 h -2.64583 m 102.71919,0.20056 c -1.65894,0.71305 -0.50271,3.26575 1.22238,2.54899 1.66158,-0.6895 0.48419,-3.28242 -1.22238,-2.54899 m -147.43377,5.62027 c -3.07711,0.002 -3.10092,2.11429 0,2.11667 v 9.525 c 0,1.28297 -0.25136,2.87602 0.64293,3.93065 1.48961,1.75525 8.04598,1.73144 6.50082,-1.5494 -1.26736,0.23522 -3.08505,0.65326 -4.11957,-0.37941 -0.84137,-0.84323 -0.64293,-2.23917 -0.64293,-3.32476 v -8.20208 h 4.23333 v -2.11667 h -4.23333 l -0.26459,-4.7625 c -2.54264,0.74745 -2.11666,2.45825 -2.11666,4.7625 m 136.78958,-4.23333 v 4.23333 c -2.83897,0.002 -3.34168,2.10582 -0.26458,2.11667 0,4.84267 -2.23837,15.52946 5.29167,14.43884 0.92075,-0.13361 1.77271,-0.36195 2.64583,-0.6805 l -0.52917,-1.85209 c -1.28322,0.23813 -3.09297,0.64506 -4.14866,-0.37941 -0.85196,-0.82418 -0.61384,-2.25213 -0.61384,-3.32476 v -8.20208 h 4.23334 v -2.11667 h -4.23334 l -0.26458,-4.7625 -2.11667,0.52917 m -187.85417,18.25625 v -17.4625 c 2.50031,0 5.78379,-0.58208 7.93221,0.96547 3.75444,2.70086 3.91583,12.42589 0.24606,15.26989 -2.21985,1.71794 -5.5589,1.22714 -8.17827,1.22714 m 35.98333,1.5875 c -0.003,5.57715 -5.00327,5.02391 -9.26041,4.23334 l -0.52917,1.85208 c 3.20146,1.02394 9.86102,2.11931 11.78719,-1.58856 1.48167,-2.85618 0.64823,-7.45596 0.64823,-10.58228 0,-1.98199 0.90752,-7.07337 -0.42334,-8.61668 -1.91029,-2.21271 -9.12812,-1.54675 -11.19452,0.0542 -3.51366,2.72389 -3.38402,11.78243 -0.0132,14.54362 2.40242,1.96691 6.38969,1.25359 8.98525,0.10424 m 25.92917,-13.22916 c 3.96346,-0.73581 8.99319,-1.21576 8.99584,3.96875 -2.80723,0 -6.86859,-0.69427 -9.21015,1.22713 -2.28865,1.87828 -2.44475,7.25541 0.48419,8.61431 2.7596,1.2819 6.4135,0.006 8.72596,-1.63936 0.46566,1.17475 4.09045,3.30147 4.37356,1.03452 0.13494,-1.06654 -1.60073,-1.39912 -1.71186,-2.62599 -0.30427,-3.37793 1.10332,-8.35554 -0.81227,-11.36174 -1.53458,-2.41115 -5.73087,-2.091 -8.19943,-1.78779 -1.74361,0.21432 -3.64596,0.46038 -2.64584,2.57017 m 43.92084,-0.52917 c -0.0397,-1.18269 -1.61131,-3.01466 -2.48709,-1.23878 -0.46566,0.94747 -0.15875,2.5871 -0.15875,3.62003 v 8.20208 c 0,0.96626 -0.27781,2.46751 0.15875,3.35545 0.6403,1.29937 2.36538,0.45191 2.47121,-0.71464 0.33867,-3.72586 0.0159,-7.62953 0.0159,-11.37206 2.12196,-0.37809 5.6515,-3.02895 7.53798,-0.75459 1.7145,2.06957 0.6641,7.70599 0.6641,10.27959 0,1.26603 -0.33337,3.37027 1.57427,3.13082 1.85473,-0.23337 1.07156,-5.17896 1.07156,-6.5704 0,-2.43708 0.52653,-5.68669 -0.61118,-7.93644 -1.94998,-3.85287 -7.63059,-1.85658 -10.23673,-0.001 m 16.93333,0 c -0.0608,-1.87854 -2.43417,-2.69055 -2.62996,-0.52414 -0.17462,1.90791 -0.0159,3.89996 -0.0159,5.8158 0,2.6207 -0.39952,5.60414 0.0397,8.18648 0.1852,1.08691 1.905,1.55972 2.44739,0.46064 2.29129,-4.65799 -3.09298,-11.10007 3.59834,-13.27203 0.83079,-0.26935 1.76741,-0.48869 2.64583,-0.36195 3.51896,0.50826 2.11667,9.01567 2.11667,11.60145 0,1.11231 0.3757,3.83064 2.2225,2.37384 1.15093,-0.90884 0.42333,-5.48799 0.42333,-6.87176 0,-2.40586 0.48419,-5.46391 -0.70908,-7.66154 -1.9685,-3.62056 -7.66234,-1.51024 -10.13884,0.25321 m 19.05,-1.99284 c -4.01902,0.75961 -4.7625,4.61697 -4.7625,8.07825 0,5.40253 2.28336,9.72344 8.46667,8.60822 5.87904,-1.06018 7.18608,-10.80002 3.60098,-14.93044 -1.69333,-1.95236 -4.91331,-2.20847 -7.30515,-1.75603 m 37.83542,6.49075 c -2.80723,0 -6.8924,-0.71596 -9.24983,1.1692 -2.36009,1.88939 -2.46327,7.35965 0.51858,8.7122 2.86279,1.29778 6.26269,-0.23813 8.73125,-1.67931 0.48948,2.3704 4.14338,2.71224 4.23333,0 -2.19868,-0.34767 -1.85208,-2.46592 -1.85208,-4.23334 0,-3.01069 1.07421,-8.2632 -2.11667,-9.98034 -2.08491,-1.12078 -5.4266,-0.74322 -7.67291,-0.35931 -0.7964,0.136 -2.8919,0.70326 -1.84415,1.96771 0.51329,0.61859 2.18811,0.17674 2.90248,0.16986 3.51631,-0.0336 6.31296,-0.0902 6.35,4.23333 m 29.63334,-6.49075 c -5.58271,1.05515 -6.47171,10.77833 -3.45546,14.66823 1.62983,2.10106 4.70958,2.42041 7.15962,1.97829 5.82084,-1.04987 7.16492,-10.78177 3.60098,-14.89049 -1.69333,-1.95262 -4.91331,-2.20847 -7.30514,-1.75603 m 14.81666,1.99284 c -0.0609,-1.87854 -2.43416,-2.69055 -2.62996,-0.52414 -0.17462,1.90791 -0.0159,3.89996 -0.0159,5.8158 0,2.6207 -0.39952,5.60414 0.0397,8.18648 0.18521,1.08664 1.905,1.55972 2.44739,0.46064 2.29129,-4.65799 -3.09298,-11.10007 3.59834,-13.27203 0.82814,-0.26935 1.76741,-0.48869 2.64583,-0.36195 3.50573,0.50641 2.11667,9.04213 2.11667,11.60145 0,1.11231 0.3757,3.83064 2.2225,2.37384 1.15093,-0.90884 0.42333,-5.48799 0.42333,-6.87176 0,-2.40586 0.48419,-5.46391 -0.70908,-7.66154 -1.9685,-3.62056 -7.66234,-1.51024 -10.13884,0.25321 m -205.687,-1.58005 c -0.81492,0.64373 -0.42333,2.77865 -0.42333,3.69676 0,3.62982 -0.56886,7.78642 0.0397,11.36147 0.16405,0.96203 1.37055,1.44145 2.18282,0.80195 0.81491,-0.64373 0.42333,-2.77865 0.42333,-3.69675 0,-3.62982 0.56885,-7.78643 -0.0397,-11.36148 -0.16404,-0.96202 -1.37318,-1.44145 -2.18281,-0.80195 m 26.82875,-0.27199 c -0.76994,5.3e-4 -2.02671,-0.2167 -2.45004,0.6133 -0.48948,0.9607 -0.19579,2.57122 -0.19579,3.62003 v 8.20209 c 0,0.96414 -0.32809,2.73737 0.31221,3.54462 0.49477,0.62442 1.81768,0.53419 2.17487,-0.18918 0.60854,-1.23957 0.15875,-3.5806 0.15875,-4.94294 v -4.49792 -6.35 m 106.89167,0.26458 c 1.35732,4.01453 3.02684,7.93618 4.51115,11.90625 0.38894,1.04008 0.889,3.55653 1.94998,4.07379 2.10608,1.02685 2.794,-1.61898 3.31523,-3.01545 1.56369,-4.19127 4.11427,-8.80825 4.77573,-13.22917 l -2.46063,0.42413 -1.59014,3.8092 -3.09298,8.99584 -3.28613,-9.26042 -1.43404,-3.54462 -2.68817,-0.15955 m 45.77292,-0.26458 v 16.40417 h 2.38125 v -16.40417 h -2.38125 m -161.92501,2.38125 v 11.37708 c -1.99231,0.25744 -5.02443,1.29805 -6.86593,0.0683 -2.43682,-1.6293 -2.49767,-9.20935 -0.22225,-10.99476 1.85208,-1.4515 4.96358,-0.54186 7.08818,-0.45058 m 106.36251,-0.17357 c 4.71752,-0.96917 5.86581,2.60773 5.82083,6.52357 -0.0265,2.1844 -0.4445,4.81515 -2.91041,5.41522 -4.89215,1.19142 -6.1013,-3.3864 -5.63034,-7.26731 0.23548,-1.95289 0.36513,-4.18756 2.71992,-4.67148 m 67.46875,0 c 4.63286,-0.95171 5.91079,2.60482 5.81819,6.52357 -0.0529,2.18281 -0.43921,4.81436 -2.90777,5.41522 -4.95829,1.2073 -6.24681,-3.57901 -5.70706,-7.53189 0.254,-1.88013 0.6006,-3.95605 2.79664,-4.4069 m -138.90625,6.25898 c 0,1.09935 0.34131,2.90433 -0.27252,3.86557 -1.00013,1.56739 -5.77851,2.776 -7.28663,1.49436 -2.78077,-2.3659 0.9869,-5.34828 3.32581,-5.35966 l 4.23334,-2.7e-4 m 108.74375,0 c 0,1.09511 0.34396,2.9091 -0.27252,3.86451 -1.03187,1.60231 -6.09865,2.83845 -7.51681,1.31233 -2.51619,-2.70933 1.12977,-5.16467 3.556,-5.17657 l 4.23333,-2.7e-4 m -143.40418,24.34168 c 0,-2.20187 0.33073,-4.69371 -0.0397,-6.86356 -0.14817,-0.86942 -1.14035,-1.4105 -1.91823,-0.80169 -0.62177,0.48842 -0.42333,1.6846 -0.42333,2.37358 v 6.87917 9.26041 c 0,1.10252 -0.34131,2.92365 0.27252,3.89493 1.30175,2.06561 7.55121,1.62825 9.51706,0.97367 4.8604,-1.61766 5.53509,-11.46889 2.32569,-14.89498 -2.5109,-2.67785 -6.65692,-1.52691 -9.73402,-0.82153 m 143.13959,8.20208 h 0.52916 c 1.02923,2.81252 3.60098,8.45317 7.14375,7.40833 l -3.81529,-6.61458 -1.41287,-2.91042 4.699,-6.61458 c -4.064,0 -7.47977,4.7117 -9.26042,8.20208 -0.99748,-3.37449 -0.26458,-7.85918 -0.26458,-11.37708 0,-0.95938 0.42333,-3.29221 -0.42334,-3.96135 -2.6035,-2.05528 -2.2225,3.45176 -2.2225,4.49052 V 261.414 c 0,0.89086 0.44186,5.45439 2.37332,3.01546 0.74083,-0.93398 0.0635,-2.70775 0.42068,-3.80921 0.42069,-1.29143 1.61396,-2.23917 2.23309,-3.43958 M 117.15309,242.62858 v 16.66876 c 0,2.55032 -0.89694,5.54461 2.38125,5.55625 v -10.58334 h 10.05416 c 0,3.04668 -0.25929,6.22195 0.0159,9.25539 0.0979,1.08136 1.51871,1.96215 2.35744,0.90382 0.89429,-1.12765 0.27252,-4.52993 0.27252,-5.92587 v -15.87501 h -2.64584 v 9.26042 h -6.87916 c -0.82021,0 -2.10873,0.21749 -2.75167,-0.42412 -1.36525,-1.36525 -0.42333,-6.9559 -0.42333,-8.8363 h -2.38125 m 78.05208,0 v 16.93334 c 0,1.14168 -0.61912,4.83817 0.83079,5.2025 2.08757,0.52414 1.55046,-2.71647 1.55046,-3.87958 v -13.49375 c 3.37079,4.07299 5.88698,9.08579 8.81857,13.49375 0.87577,1.31365 1.93939,4.11691 3.8682,3.91795 1.75155,-0.18098 1.07157,-3.99706 1.07157,-5.24087 v -16.93334 h -2.38125 v 17.19792 c -3.18294,-3.84333 -5.64621,-8.51879 -8.37671,-12.7 -1.56369,-2.39633 -2.2569,-4.49554 -5.38163,-4.49792 m 38.36459,1.58751 v 4.23333 h -2.38125 v 2.11667 h 2.38125 v 8.99583 c 0,1.2102 -0.27781,2.85247 0.31221,3.95711 0.88106,1.65364 6.82625,2.60032 7.24693,0.22198 0.34661,-1.95659 -4.13543,-0.38735 -4.94241,-2.34156 -1.1774,-2.84983 -0.23548,-7.76129 -0.23548,-10.83336 1.02658,0 3.2041,0.41354 4.03489,-0.272 2.29659,-1.89177 -3.39195,-1.84467 -4.03489,-1.84467 v -4.7625 l -2.38125,0.52917 m -62.97084,18.25625 c -0.32279,2.08994 1.16946,2.20424 2.91042,2.45295 2.60614,0.37227 6.02456,0.32623 7.82637,-1.93516 0.54769,-0.68554 0.81227,-1.50416 0.88107,-2.36988 0.26193,-3.37952 -2.00819,-4.82917 -5.00327,-5.39459 -1.43669,-0.27119 -3.81265,-0.40375 -4.0693,-2.27938 -0.68262,-4.98951 7.57238,-0.63183 8.39259,-2.94455 0.53975,-1.52241 -2.07963,-1.72879 -3.00038,-1.79308 -2.64054,-0.18521 -6.11452,-0.35375 -7.5565,2.35849 -0.29898,0.56172 -0.48419,1.22053 -0.56091,1.85103 -0.66146,5.41973 5.41602,3.84519 8.08831,5.95683 3.53483,2.7903 -1.77271,4.41113 -3.93965,4.35795 -1.33085,-0.0325 -2.62996,-0.25982 -3.96875,-0.26061 m 47.36042,-5.02709 h 7.67292 c 0.9525,0 2.29394,0.21802 2.97921,-0.6133 0.74612,-0.90673 0.34925,-2.31458 0.19579,-3.35545 -0.67469,-4.50903 -5.37634,-6.59527 -9.525,-4.89929 -5.87904,2.40348 -5.50863,14.76402 0.79375,16.30284 2.00289,0.48921 4.36827,0.25558 6.35,-0.26565 0.76464,-0.20161 1.97114,-0.78978 1.30969,-1.78408 -0.71173,-1.07236 -3.67242,-0.11854 -4.74928,-0.0974 -3.56129,0.0696 -4.62227,-2.10767 -5.02708,-5.2877 m 52.3875,-9.12045 c -3.79412,0.87683 -4.49791,4.76277 -4.49791,8.06212 0,5.78961 2.89189,9.97929 9.26041,8.40317 5.1779,-1.28138 5.99017,-10.3767 3.26761,-14.22295 -1.72244,-2.43337 -5.27579,-2.87893 -8.03011,-2.24234 m 16.13959,1.9767 c -0.0609,-1.85023 -1.01071,-1.85076 -2.64584,-1.85208 v 12.17083 c 0,0.98187 -0.46566,3.55124 0.61384,4.07353 1.75683,0.85143 2.02935,-1.01256 2.032,-2.22144 v -10.31875 c 2.8866,-0.42625 5.8076,-0.75698 5.55625,-3.96875 l -5.55625,2.11666 m -139.17084,12.7 c 0.0741,1.33165 1.97908,2.98609 2.56116,1.01918 0.43392,-1.45838 0.0847,-3.47213 0.0847,-4.98793 v -10.58333 h -2.38125 v 6.61458 c 0,1.44463 0.52652,4.20106 -0.27252,5.45307 -1.14829,1.80049 -6.30238,3.22341 -7.64117,1.13268 -1.8415,-2.87682 -0.26723,-8.57012 -0.56885,-11.87239 -0.0952,-1.0541 -1.22767,-1.82721 -2.20663,-1.05595 -1.15093,0.90885 -0.42333,5.48799 -0.42333,6.87176 0,2.39316 -0.45508,5.50889 0.81756,7.66895 2.05846,3.49964 7.52211,1.52479 10.03036,-0.26062 m 94.45625,-14.55208 c 0.43127,4.30477 2.86544,8.86407 4.23334,12.96458 0.44714,1.34276 0.75141,3.62718 2.6326,3.3954 1.16417,-0.14367 1.37583,-1.40123 1.68804,-2.33706 0.78846,-2.35744 1.73302,-4.72176 2.29394,-7.14375 h 0.26458 c 0.57944,2.5101 1.56104,4.96649 2.38125,7.40833 0.36777,1.09379 0.70379,2.24314 2.10609,2.07248 1.5875,-0.19341 1.89177,-2.68605 2.30452,-3.92456 1.36525,-4.09602 3.08239,-8.22934 4.05606,-12.43542 -5.6224,5.3e-4 -3.88673,9.27338 -6.87917,12.7 l -2.64583,-8.99583 -1.24354,-3.28004 -2.46063,-0.42413 c 0.52123,3.87085 0.46038,9.44642 -2.38125,12.7 l -2.63789,-8.99583 -1.25148,-3.28004 -2.46063,-0.42413 m -81.22709,1.93807 c 5.89228,-0.42968 6.0034,11.9298 0.26459,12.32535 -0.96838,0.0667 -3.8444,0.15108 -4.48998,-0.66463 -0.47625,-0.6014 -0.27252,-1.7735 -0.27252,-2.48629 0,-1.78117 -0.87842,-6.97071 0.42333,-8.2714 0.84402,-0.84138 2.9554,-0.82154 4.07458,-0.90303 m 65.61667,4.9411 h -8.20208 c 0.25665,-1.36076 0.34131,-2.87708 1.38113,-3.90843 3.27818,-3.24855 6.81037,0.44477 6.82095,3.90843 m 46.03751,-4.94004 c 6.38968,-0.56092 6.7257,11.71152 1.05833,12.30233 -6.45583,0.67284 -6.73894,-11.80385 -1.05833,-12.30233 z"
       id="path302" /></g></svg>
